<?xml version="1.0" standalone="no"?><!DOCTYPE svg PUBLIC "-//W3C//DTD SVG 1.1//EN" "http://www.w3.org/Graphics/SVG/1.1/DTD/svg11.dtd"><svg t="1605102144390" class="icon" viewBox="0 0 1024 1024" version="1.1" xmlns="http://www.w3.org/2000/svg" p-id="1271" xmlns:xlink="http://www.w3.org/1999/xlink" width="200" height="200"><defs><style type="text/css"></style></defs><path d="M266.98524445 211.76775111h0.27648l490.30712888-0.41415111c5.25880889 0 10.37880889-2.76821333 13.28469334-7.47292445 28.36935111-45.80693333 21.45052445-104.3456-16.60586667-142.53966222-45.11516445-45.11402667-118.45973333-45.11402667-163.57489778 0l-78.60337777 78.74218667-78.60451556-78.60337778c-45.11402667-45.11516445-118.45973333-45.11516445-163.57376 0-38.33287111 38.33287111-44.97635555 97.14801778-16.32938667 142.95381333 2.90588445 4.70584889 8.16469333 7.33411555 13.42350223 7.33411556z m653.60440888 41.23989334H103.41034667c-47.88110222 0-86.76807111 37.22581333-86.76807112 83.03274666s38.88696889 83.03274667 86.76807112 83.03274667h817.17930666c47.88110222 0 86.76807111-37.22695111 86.76807112-83.03274667s-38.88696889-83.03274667-86.76807112-83.03274666z m55.07754667 83.03274666c0-0.13880889 0-0.13880889 0 0 0-0.13880889 0-0.13880889 0 0zM455.33070222 460.17422222h-340.57102222v415.30026667c0 67.11751111 54.52344889 121.64323555 121.50328889 121.64323556h240.37831111V460.17422222h-21.31057778z m425.54026667 0H545.83637333v536.94350223h242.03946667c66.98097778 0 121.64323555-54.52458667 121.64323555-121.64323556V460.17422222h-28.6458311z" fill="#ffffff" p-id="1272"></path></svg>