<?xml version="1.0" standalone="no"?><!DOCTYPE svg PUBLIC "-//W3C//DTD SVG 1.1//EN" "http://www.w3.org/Graphics/SVG/1.1/DTD/svg11.dtd"><svg t="1605102152699" class="icon" viewBox="0 0 1024 1024" version="1.1" xmlns="http://www.w3.org/2000/svg" p-id="1523" xmlns:xlink="http://www.w3.org/1999/xlink" width="200" height="200"><defs><style type="text/css"></style></defs><path d="M199.111111 739.555556V402.887111c0-151.324444 125.411556-274.688 284.444445-287.943111V85.333333a28.444444 28.444444 0 0 1 56.888888 0v29.610667c159.032889 13.255111 284.444444 136.590222 284.444445 287.943111V739.555556h56.888889a28.444444 28.444444 0 0 1 0 56.888888H142.222222a28.444444 28.444444 0 0 1 0-56.888888h56.888889z m173.283556 112.64l-6.684445-34.019556 292.579556 0.455111-6.769778 33.962667-0.227556 1.166222a142.250667 142.250667 0 0 1-278.641777-0.369778l-0.256-1.223111z" fill="#ffffff" p-id="1524"></path></svg>